HIERARCHY
ROOT Hips
{
   OFFSET 0.00000 0.00000 0.00000
   CHANNELS 6 Xposition Yposition Zposition Zrotation Xrotation Yrotation
   JOINT RightUpLeg
   {
      OFFSET -8.945800 -8.667070 0.101652
      CHANNELS 3 Zrotation Xrotation Yrotation
      JOINT RightLeg
      {
         OFFSET 0.000000 -44.422697 1.372700
         CHANNELS 3 Zrotation Xrotation Yrotation
         JOINT RightFoot
         {
            OFFSET 0.253549 -42.092399 -1.460590
            CHANNELS 3 Zrotation Xrotation Yrotation
            JOINT RightToes
            {
               OFFSET 0.040000 -4.415090 8.499099
               CHANNELS 3 Zrotation Xrotation Yrotation
               End Site
               {
                  OFFSET -0.080000 -0.137448 9.779790
               }
            }
         }
      }
   }
   JOINT Spine
   {
      OFFSET 0.000000 11.890501 0.000000
      CHANNELS 3 Zrotation Xrotation Yrotation
      JOINT Spine1
      {
         OFFSET 0.000000 25.657401 0.127663
         CHANNELS 3 Zrotation Xrotation Yrotation
         JOINT HEad
         {
            OFFSET 0.000000 8.734161 0.011341
            CHANNELS 3 Zrotation Xrotation Yrotation
            End Site
            {
               OFFSET -0.290000 12.774200 2.513950
            }
         }
         JOINT LeftShoulder1
         {
            OFFSET 8.990000 -0.362252 -0.220000
            CHANNELS 3 Zrotation Xrotation Yrotation
            JOINT LeftArm
            {
               OFFSET 10.282700 -0.003380 0.322123
               CHANNELS 3 Zrotation Xrotation Yrotation
               JOINT LeftForeArm
               {
                  OFFSET 32.766900 0.099144 -1.424340
                  CHANNELS 3 Zrotation Xrotation Yrotation
                  JOINT LeftHand
                  {
                     OFFSET 27.564301 0.085362 1.022160
                     CHANNELS 3 Zrotation Xrotation Yrotation
                     End Site
                     {
                        OFFSET 16.744301 -0.600000 1.502910
                     }
                  }
               }
            }
         }
         JOINT RightShoulder
         {
            OFFSET -8.990000 -0.362252 -0.220000
            CHANNELS 3 Zrotation Xrotation Yrotation
            JOINT RightArm
            {
               OFFSET -10.282700 -0.003380 0.322123
               CHANNELS 3 Zrotation Xrotation Yrotation
               JOINT RightForeArm
               {
                  OFFSET -32.897098 0.099144 -1.424340
                  CHANNELS 3 Zrotation Xrotation Yrotation
                  JOINT RightHand
                  {
                     OFFSET -27.492101 0.085362 1.022160
                     CHANNELS 3 Zrotation Xrotation Yrotation
                     End Site
                     {
                        OFFSET -16.631201 -0.600000 1.502910
                     }
                  }
               }
            }
         }
      }
   }
   JOINT LeftUpLeg
   {
      OFFSET 8.945800 -8.667070 0.101652
      CHANNELS 3 Zrotation Xrotation Yrotation
      JOINT LeftLeg
      {
         OFFSET 0.000000 -44.422697 1.372700
         CHANNELS 3 Zrotation Xrotation Yrotation
         JOINT LeftFoot
         {
            OFFSET -0.253549 -42.092399 -1.460590
            CHANNELS 3 Zrotation Xrotation Yrotation
            JOINT LeftToes
            {
               OFFSET -0.040000 -4.415090 8.499099
               CHANNELS 3 Zrotation Xrotation Yrotation
               End Site
               {
                  OFFSET 0.080000 -0.047448 9.779790
               }
            }
         }
      }
   }
}
MOTION
Frames: 18
Frame Time: 0.016667
-185.467126 97.258233 -391.945261 -9.462127 31.595837 -169.078573 -11.510303 21.273172 -15.850757 -4.207997 30.716163 -30.142806 -43.411863 3.025890 36.277088 -2.508079 -12.266085 -26.537764 -19.427146 32.293353 56.469146 18.254847 11.807462 -54.407525 17.406455 18.796817 -5.206546 11.710016 49.006197 -39.240410 28.760509 -67.338842 -9.756541 4.955414 -35.073943 -40.437206 -45.493059 -44.517073 -59.164977 8.265692 82.926720 33.501149 102.672107 151.324494 185.834940 24.413425 220.434984 83.488394 -11.278827 -3.334068 44.352974 17.551682 -6.670144 -121.426434 -21.035528 -24.496868 151.754564 -63.327492 20.634895 26.212156 -1.169488 -6.573298 -8.443989
-185.789582 97.075509 -391.241793 -8.288115 30.399389 -168.682682 -10.800184 18.782143 -17.189412 -4.165618 31.757419 -30.984146 -44.804306 3.685859 36.460721 -2.987165 -13.138251 -26.141227 -18.014067 34.673448 57.833274 18.676889 7.695444 -62.056148 15.569742 16.688884 -1.051924 14.310770 51.684014 -37.518178 28.503836 -72.190332 -8.224457 8.529864 -33.934094 -37.929540 -46.744189 -45.801059 -61.071126 0.826834 69.494149 37.418696 101.065633 161.039536 195.340801 26.461025 228.464541 84.799619 -9.532170 -1.428063 40.494416 17.136325 -12.696723 -120.540640 -20.209264 -25.331951 142.943428 -37.825676 23.752633 26.301260 -1.729200 -4.520480 -8.093826
-186.491677 96.350010 -390.850328 -6.562850 29.728477 -171.462118 -11.169125 16.292627 -15.282436 -3.900541 33.585864 -31.819280 -45.607646 3.703434 36.849984 -3.475021 -14.023655 -25.756075 -14.498274 36.598807 62.265753 20.514871 3.366073 -68.568160 13.444320 12.455008 2.641521 15.228759 53.516045 -36.983442 27.894725 -75.738841 -7.744698 11.756747 -33.468067 -37.423771 -50.400396 -46.983929 -64.609006 -1.441884 60.097127 42.891378 104.085546 168.502433 203.460462 29.429755 234.669973 92.778387 -5.509606 -1.394771 45.660641 15.649119 -14.879883 -119.659368 -18.171626 -25.615118 136.510005 -12.820787 24.881510 26.404359 -2.247106 -2.332468 -8.057804
-187.439534 95.602673 -390.773729 -4.648013 31.344257 -173.288087 -10.595294 16.140249 -13.243266 -3.748648 35.796779 -32.626055 -45.182815 3.988481 37.339644 -3.796632 -14.497824 -25.511979 -13.020335 36.536154 66.965893 20.724954 1.872996 -75.858745 10.976138 9.224802 5.935999 15.990900 57.434945 -33.558803 27.139063 -79.419780 -6.926384 14.403411 -31.783066 -35.902582 -52.457154 -47.577349 -67.315660 -4.694142 52.427893 44.571591 108.137932 174.920448 209.922026 33.078610 240.206715 97.128179 -4.329537 0.733417 44.928523 19.021462 -13.059512 -120.556705 -16.106378 -24.215121 132.970095 -37.097226 20.669921 29.422061 -2.693454 -4.138655 -6.984543
-188.456685 94.982518 -390.962824 -2.274733 32.053118 -175.256111 -9.724429 15.632486 -11.699867 -3.406617 37.131999 -32.874940 -44.926672 4.370889 37.796638 -4.123910 -15.055764 -25.216572 -10.204045 36.259446 71.134672 21.704888 0.236899 -82.952449 9.241296 5.612320 8.565348 16.243855 61.306726 -31.832786 27.503500 -81.557001 -5.132267 17.026388 -30.549155 -34.156892 -55.559580 -48.558496 -70.439119 -7.545537 47.112698 45.597820 112.606221 179.398293 215.717523 36.553837 245.837168 100.611446 -1.651605 1.905303 45.927804 18.431197 -14.191532 -123.365265 -14.709915 -24.245377 130.996922 -25.467865 21.372410 30.381989 -2.993783 -5.211889 -7.298787
-189.628427 94.194106 -391.548571 -0.539383 32.603669 183.151290 -9.432191 14.807613 -10.436366 -3.176367 39.193985 -33.218055 -44.610711 4.621855 37.991384 -4.354009 -15.508832 -25.112806 -7.185747 34.076435 74.372516 22.568892 -3.361641 -90.619111 8.443688 0.372939 10.539899 15.951734 65.231455 -30.961131 29.535852 -82.453484 -1.275883 19.798468 -31.236238 -31.869707 -57.140458 -49.143283 -74.230489 -9.198583 43.674378 46.360548 117.938283 183.402272 221.018528 40.888439 250.358726 105.596924 -0.587619 3.988582 44.925071 18.919453 -14.409698 -127.892847 -13.419953 -23.489936 130.773807 -30.687114 21.631793 31.366530 -3.170150 -6.196501 -8.095763
-190.923478 93.468035 -392.462191 0.964364 32.058528 181.451980 -9.652180 13.937321 -9.849747 -2.682169 39.888014 -33.089900 -44.349433 5.017923 38.388235 -4.623116 -16.027083 -24.846937 -4.755123 30.514044 79.327545 22.850830 -6.058419 -97.200012 6.886879 -4.091190 12.145882 15.481242 68.945487 -30.695232 33.226879 -82.245518 3.718036 22.398282 -32.074346 -30.680612 -59.347869 -49.375834 -79.555400 -11.108918 41.142993 46.501874 122.193846 186.667745 225.346983 46.087033 254.472604 111.348913 1.201992 5.135855 45.040395 18.370250 -16.331561 -132.317662 -12.334335 -22.974979 133.035092 -28.920360 23.067900 32.929650 -3.394491 -6.571127 -8.316735
-192.311017 92.957657 -393.734545 2.683942 31.019714 179.927591 -9.136380 12.972325 -9.639545 -2.802955 40.054135 -33.171039 -43.920924 4.339695 37.686668 -4.822700 -17.241757 -25.454838 -3.499529 29.916980 84.807857 23.493861 -8.182986 -103.253056 3.770226 -5.992851 13.494973 15.588906 71.594835 -29.516376 37.249816 -81.619005 9.718181 25.080113 -33.501569 -29.877676 -60.337153 -49.774836 -84.785160 -12.698870 39.469460 46.059961 125.753809 190.184104 228.524906 52.128960 257.259212 118.890849 1.939206 6.512576 44.651774 18.513593 -18.715888 -137.130063 -11.617722 -22.651897 136.782516 -31.450463 23.798336 34.404090 -3.574244 -6.854724 -8.371889
-193.694188 92.608107 -395.286211 4.339282 30.885019 178.342277 -8.704309 13.030442 -9.499797 -3.149235 40.627785 -32.881244 -43.301514 3.881038 37.191715 -4.897912 -18.120775 -26.123901 -1.969835 27.920114 90.297041 24.007215 -11.288205 -109.177678 1.054345 -7.527111 14.411697 16.200865 74.391272 -30.371522 403.174346 -80.711929 16.047973 27.652127 -34.403468 -27.518830 -61.673132 -50.859757 -88.133428 -14.612008 37.806238 45.312670 129.990630 193.288725 231.742964 59.131345 259.217236 126.319513 3.276676 7.488006 44.966766 18.431342 -19.596658 -141.337842 -11.280019 -22.406485 140.506431 -32.416389 24.244919 35.608775 -3.710942 -7.159857 -8.297517
-194.968869 92.422494 -397.010111 5.911660 31.498049 176.783382 -8.525571 13.989430 -9.280993 -1.738427 40.636286 -32.302553 -44.130412 3.738068 37.306111 -4.876078 -18.489083 -26.594573 -0.559421 25.817120 96.201562 24.548239 -14.382024 -114.714776 -1.348087 -7.962836 14.908249 16.915619 76.919091 -32.371340 410.804132 -79.541753 22.711576 29.991849 -35.227005 -25.339508 -62.170144 -52.456454 -90.415258 -16.942646 36.632497 44.028509 134.970385 196.106137 235.183576 66.853967 260.048798 134.297925 4.067495 8.710322 44.601050 18.453484 -18.596261 -144.926888 -11.019684 -22.055388 143.710950 -33.526393 23.653775 36.146457 -3.764849 -7.413379 -8.326235
-196.200025 92.434052 -398.861955 7.254206 33.193859 174.275514 -8.957242 16.581517 -8.581859 -1.772254 40.147654 -30.868842 -43.900474 3.135634 37.551475 -4.789661 -18.686786 -27.113735 1.076367 23.704177 102.425626 26.549340 -16.324815 -119.730607 -3.429713 -7.494744 15.193892 17.590954 80.142311 -35.007551 419.733511 -77.923777 29.652262 31.783418 -35.307792 -23.115797 -62.998762 -54.612389 -91.220701 -19.843467 36.500975 42.629912 140.754967 198.573830 239.632706 75.149839 259.758542 143.098651 5.301723 9.783747 44.625533 18.155543 -15.990161 -148.081698 -11.991292 -22.190643 146.578523 -34.821295 23.160938 36.424641 -3.826324 -7.042548 -8.151526
-197.363393 92.591609 -400.736307 8.550170 33.332696 172.766999 -9.396155 17.844330 -8.397210 -1.816659 39.640984 -28.912795 -42.660221 2.726443 38.173063 -4.628703 -18.682806 -27.670860 1.428845 24.149783 109.065943 26.283669 -20.222221 -124.856118 -5.555596 -5.540847 15.317695 18.848247 82.372737 -36.648879 427.494109 -76.944014 36.680517 33.496139 -36.115636 -20.908707 -62.527472 -57.232262 -93.058752 -23.301949 34.710659 40.528567 146.330546 202.557934 242.552093 84.212688 257.148808 152.192966 6.119572 10.999601 44.051619 18.363548 -15.021365 -150.442088 -12.317898 -23.115747 149.094396 -35.544158 22.131913 36.576261 -3.792309 -6.819714 -8.152412
-198.472020 92.844790 -402.638696 10.016460 32.522950 171.683198 -9.440267 18.107156 -8.581241 -1.804630 39.296872 -26.647829 -41.205790 2.443542 39.037943 -4.444318 -18.559653 -28.167926 1.529714 26.823457 116.202773 25.453547 -23.629458 -129.438218 -9.986645 -0.954408 15.678438 22.533443 82.280209 -36.634997 75.843950 -76.507456 43.341983 35.099738 -37.057372 -19.098614 -62.469743 -59.632305 -94.588715 -25.749835 33.339192 38.711217 152.427610 208.704408 244.562518 93.563742 251.814130 162.876830 6.562030 11.378772 44.100499 18.820690 -14.754621 -152.506199 -12.357749 -23.481313 151.372947 -36.192103 21.641446 36.722659 -3.816115 -5.866461 -7.835173
-199.518391 93.168801 -404.423631 11.138857 33.049728 170.453873 -9.700247 18.851848 -8.126501 -1.593990 39.883322 -24.694619 -40.618899 2.293267 40.048712 -4.289962 -18.483761 -28.595490 2.689237 28.073336 122.160228 24.362726 -27.064044 -134.758143 -12.321365 1.464540 15.695544 25.217379 83.801995 -38.495431 84.128990 -76.125293 50.518265 36.822468 -36.615039 -16.752902 -62.424179 -61.479188 -95.054049 -28.395458 33.066155 37.267688 159.946242 214.268280 248.561785 103.657519 246.155373 173.852643 6.870985 11.940997 44.019278 18.720466 -13.310078 -153.946098 -12.570515 -24.144399 153.592308 -36.523911 20.963346 36.836207 -3.875832 -4.799866 -7.045365
-200.565259 93.542527 -406.192926 11.792379 32.991511 169.028331 -10.254919 18.668558 -7.892164 -1.903836 40.146503 -22.954777 -38.882775 2.238310 40.871442 -3.952882 -17.837524 -29.002312 2.752691 29.125146 127.695127 22.078026 -30.100831 -140.134390 -13.824146 2.087888 15.604447 28.259409 85.347155 -41.293865 92.905777 -75.905559 57.975110 38.455297 -35.433519 -14.756477 -62.492631 -62.866291 -95.128505 -30.557078 33.690086 36.561309 168.942557 219.992088 254.120548 113.879737 239.874167 184.929585 7.410453 12.593361 43.994054 18.755698 -11.724027 -153.870392 -12.476776 -24.185230 154.617916 -36.320941 20.209912 37.158333 -3.999962 -3.176584 -5.789214
-201.614549 93.939703 -407.860712 12.147917 33.550931 167.637363 -10.770040 19.224285 -7.540257 -2.144318 39.925427 -21.720826 -37.516942 1.784716 41.338023 -3.536593 -17.027525 -29.429134 2.835834 30.109451 133.520882 20.475444 -32.198352 -144.908296 -14.747828 2.507509 15.392303 31.080386 87.020244 -43.560566 101.747532 -75.870076 65.558854 39.823346 -33.736350 -13.813023 -62.124409 -63.960091 -95.382075 -31.621300 36.001852 36.681749 179.706471 226.169338 261.339703 123.831917 232.489257 196.762710 8.169117 13.622586 43.721253 18.769413 -10.179551 -152.636765 -12.828386 -24.415507 154.211451 -36.315043 20.350602 37.189478 -4.241746 0.085125 -4.362842
-202.640473 94.386319 -409.390710 12.037310 34.173909 165.484296 -11.757023 19.720004 -6.964896 -2.670119 39.623416 -21.001599 -36.165415 0.571071 41.259721 -3.065192 -16.177738 -29.909313 3.470565 30.404888 137.977416 19.040990 -33.495784 -150.090566 -15.532909 2.624971 15.154824 33.605586 88.495988 -44.642390 110.039545 -76.685969 73.866481 40.810527 -31.706496 -13.512055 -62.017202 -64.956219 -95.086294 -29.800894 40.396621 38.711842 193.098013 234.168692 270.432188 132.430961 222.965283 209.583726 9.439954 14.961331 42.937035 18.246673 -7.698870 -150.607187 -12.943444 -24.095186 152.515611 -35.559597 19.720020 36.988620 -4.342019 2.120985 -3.221471
-203.667199 94.947022 -411.002306 12.128387 33.539210 164.727251 -11.841907 19.229313 -7.142107 -2.126473 39.203025 -20.709584 -34.925315 -0.185673 41.322354 -2.440727 -14.791714 -30.191584 3.509632 32.391120 143.096083 15.992133 -34.548593 -154.595390 -16.009776 2.319309 14.873550 36.587998 88.527441 -46.337550 119.122269 -77.362643 81.889276 41.461967 -29.875678 -13.609028 -61.554375 -65.872182 -95.179806 -29.167128 43.814318 41.226551 205.957183 240.035086 281.270906 139.912477 214.709811 218.322024 9.701036 15.078435 41.497897 18.390278 -6.179451 -147.778465 -12.295782 -23.002960 149.810583 -34.346631 18.796723 36.779671 -4.359610 3.523825 -2.188411
